<?xml version="1.0" encoding="UTF-8"?>
<svg width="1839px" height="1471px" viewBox="0 0 1839 1471" version="1.1" xmlns="http://www.w3.org/2000/svg" xmlns:xlink="http://www.w3.org/1999/xlink">
    <!-- Generator: Sketch 57.1 (83088) - https://sketch.com -->
    <title>Group 2</title>
    <desc>Created with Sketch.</desc>
    <g id="Page-1" stroke="none" stroke-width="1" fill="none" fill-rule="evenodd">
        <g id="Group-2" transform="translate(-0.002710, -2.000000)">
            <g id="LUCAS_" transform="translate(293.002710, 0.000000)">
                <g id="g10" transform="translate(773.500000, 737.166700) scale(-1, 1) rotate(-180.000000) translate(-773.500000, -737.166700) translate(0.000000, 0.666700)">
                    <g id="g12" transform="translate(0.000000, 0.000000)">
                        <g id="g14-Clipped" transform="translate(0.000000, 0.000000)">
                            <g id="g14" transform="translate(0.666652, 0.333318)">
                                <g id="g20" transform="translate(323.335996, 701.652916)" fill="#030047" fill-rule="nonzero">
                                    <path d="M121.33333,213.333328 L185.390662,48.4719988 C188.205329,41.227999 184.614662,33.0733325 177.370662,30.2586659 L102.125331,1.02133331 C94.8799976,-1.79333329 86.7253312,1.79733329 83.9106646,9.04266644 L19.8639995,173.874662 C4.1039999,214.437328 -1.91599995,258.133327 2.29199994,301.445326 L2.4666666,303.249326 L46.8413322,320.491992 L48.2053321,319.263992 C80.531998,290.159993 105.579997,253.877327 121.33333,213.333328" id="path22"></path>
                                </g>
                                <g id="g24" transform="translate(348.597595, 708.387316)" fill="#5F5FFF" fill-rule="nonzero">
                                    <path d="M95.9999976,185.333329 L152.886663,38.927999 C154.147996,35.6813324 152.538663,32.0253325 149.290663,30.7639992 L74.0533315,1.5293333 C70.8093316,0.269333327 67.1493317,1.88133329 65.8893317,5.12533321 C65.8893317,5.12533321 14.645333,137.139997 1.5253333,171.171996 C-0.434666656,176.253329 1.5293333,182.013329 6.20799984,184.805329 C15.0786663,190.097329 30.3719992,195.259995 45.4199989,181.615995 C68.5839983,160.610663 95.9999976,185.333329 95.9999976,185.333329" id="path26"></path>
                                </g>
                                <g id="g28" transform="translate(314.074263, 1003.764242)" fill="#5F5FFF" fill-rule="nonzero">
                                    <path d="M46.6666655,42.6666656 L56.1039986,18.3799995 L11.7279997,1.13866664 L2.29199994,25.4239994 C-0.621333318,32.9226658 2.12399995,40.9866656 8.42533312,43.4346656 L29.9813326,51.8106654 C36.2826658,54.2586653 43.7533322,50.1653321 46.6666655,42.6666656" id="path30"></path>
                                </g>
                                <g id="g32" transform="translate(319.363862, 1004.753842)" fill="#FF3E6C" fill-rule="nonzero">
                                    <path d="M50.6666654,17.3333329 L6.58533317,0.205333328 C5.06799987,-0.38399999 3.35999992,0.367999991 2.76933326,1.88666662 L0.683999983,7.25333315 C0.0946666643,8.77199978 0.846666645,10.4799997 2.36399994,11.0693331 L46.4453322,28.1973326 C47.9626655,28.7866659 49.6706654,28.034666 50.2613321,26.5173327 L52.3466654,21.1493328 C52.937332,19.6319995 52.1839987,17.9226662 50.6666654,17.3333329" id="path34"></path>
                                </g>
                                <g id="g36" transform="translate(393.930927, 880.387311)" fill="#5F5FFF" fill-rule="nonzero">
                                    <path d="M50.6666654,13.333333 C50.6666654,13.333333 23.2506661,-11.389333 0.0866666645,9.61599976 C0.0866666645,9.61599976 10.0053331,28.3453326 32.1853325,34.0119991 C37.6213324,35.3999991 43.2306656,32.4146659 45.2693322,27.1879993 C47.7266655,20.8839995 50.6666654,13.333333 50.6666654,13.333333" id="path38"></path>
                                </g>
                                <g id="g40" transform="translate(394.942661, 879.583311)" fill="#FFFFFF" fill-rule="nonzero">
                                    <path d="M19.9999995,0 C14.1066663,0 7.8559998,1.53466663 1.77066662,5.72799986 C0.861333312,6.35466651 0.631999984,7.59999981 1.2573333,8.50933312 C1.88533329,9.41866643 3.13199992,9.64666643 4.0399999,9.02266644 C19.2613329,-1.47066663 35.6519991,6.6226665 44.0679989,12.381333 C44.9786655,13.0039997 46.2226655,12.769333 46.8479988,11.8599997 C47.4706655,10.9479997 47.2373322,9.70266642 46.3253322,9.07999977 C41.4146656,5.71999986 31.3746659,0 19.9999995,0" id="path42"></path>
                                </g>
                                <g id="g44" transform="translate(634.159455, 1236.283836)" fill="#8FACFF" fill-rule="nonzero">
                                    <path d="M1.3333333,1.3333333 L1.31466663,1.3693333" id="path46"></path>
                                </g>
                                <g id="g48" transform="translate(15.333348, 1067.000050)" fill="#8FACFF" fill-rule="nonzero">
                                    <path d="M30.6666659,53.333332 C18.0306662,53.333332 7.75066647,43.0533323 7.75066647,30.4173326 C7.75066647,17.7826662 18.0306662,7.50266648 30.6666659,7.50266648 C43.3026656,7.50266648 53.5826653,17.7826662 53.5826653,30.4173326 C53.5826653,43.0533323 43.3026656,53.333332 30.6666659,53.333332 M30.6666659,0.675999983 C14.2666663,0.675999983 0.923999977,14.0186663 0.923999977,30.4173326 C0.923999977,46.8173322 14.2666663,60.1599985 30.6666659,60.1599985 C47.0666655,60.1599985 60.4079985,46.8173322 60.4079985,30.4173326 C60.4079985,14.0186663 47.0666655,0.675999983 30.6666659,0.675999983" id="path50"></path>
                                </g>
                                <g id="g52" transform="translate(1316.330638, 530.811187)" fill="#8FACFF" fill-rule="nonzero">
                                    <path d="M30.6666659,53.333332 C18.0293329,53.333332 7.75066647,43.0533323 7.75066647,30.4173326 C7.75066647,17.7826662 18.0293329,7.50266648 30.6666659,7.50266648 C43.3026656,7.50266648 53.5826653,17.7826662 53.5826653,30.4173326 C53.5826653,43.0533323 43.3026656,53.333332 30.6666659,53.333332 M30.6666659,0.675999983 C14.265333,0.675999983 0.923999977,14.0186663 0.923999977,30.4173326 C0.923999977,46.8173322 14.265333,60.1586652 30.6666659,60.1586652 C47.0653322,60.1586652 60.4079985,46.8173322 60.4079985,30.4173326 C60.4079985,14.0186663 47.0653322,0.675999983 30.6666659,0.675999983" id="path54"></path>
                                </g>
                                <g id="g56" transform="translate(1485.817700, 1235.514902)" fill="#8FACFF" fill-rule="nonzero">
                                    <polygon id="path58" points="41.3333323 0 0.138666663 17.5519996 17.6919996 58.7453319 58.8839985 41.1933323"></polygon>
                                </g>
                                <g id="g60" transform="translate(352.333348, 543.333383)" fill="#8FACFF" fill-rule="nonzero">
                                    <polygon id="path62" points="30.6666659 0 0.134666663 32.7519992 32.8866658 63.2853318 63.4186651 30.5319992"></polygon>
                                </g>
                                <g id="g64" transform="translate(1093.274776, 425.274789)" fill="#8FACFF" fill-rule="nonzero">
                                    <polygon id="path66" points="43.9999989 0 1.13466664 24.6799994 47.2479988 55.205332"></polygon>
                                </g>
                                <g id="g68" transform="translate(392.815061, 73.749998)" fill="#8FACFF" fill-rule="nonzero">
                                    <polygon id="path70" points="43.9999989 0 1.13466664 24.6799994 47.2466655 55.205332"></polygon>
                                </g>
                                <g id="g72" transform="translate(1195.273441, 1366.882099)" fill="#8FACFF" fill-rule="nonzero">
                                    <polygon id="path74" points="34.6666658 0 0.987999975 36.2266658 54.0546653 51.7906654"></polygon>
                                </g>
                                <g id="g76" transform="translate(0.333348, 613.333383)" fill="#8FACFF" fill-rule="nonzero">
                                    <path d="M6.6666665,0 C5.73466652,0 4.79066655,0.238666661 3.9279999,0.742666648 C1.33466663,2.25866661 0.462666655,5.58666653 1.97733328,8.1799998 L35.0933325,64.834665 C36.6066658,67.430665 39.939999,68.302665 42.5306656,66.7853317 C45.1239989,65.270665 45.9973322,61.9426651 44.4813322,59.3493318 L11.365333,2.69333327 C10.3546664,0.962666643 8.53599979,0 6.6666665,0" id="path78"></path>
                                </g>
                                <g id="g80" transform="translate(1487.666633, 688.666649)" fill="#8FACFF" fill-rule="nonzero">
                                    <path d="M43.9999989,3.9999999 C43.5506656,3.18399992 42.8879989,2.4706666 42.0293323,1.95733328 C39.4546657,0.414666656 36.1159991,1.2493333 34.5733325,3.82666657 L0.849333312,60.1226652 C-0.695999983,62.6973318 0.14133333,66.0399983 2.7186666,67.5813316 C5.29466653,69.1239983 8.63466645,68.2879983 10.1773331,65.710665 L43.8999989,9.41599976 C44.9306655,7.69599981 44.8999989,5.63866653 43.9999989,3.9999999" id="path82"></path>
                                </g>
                                <g id="g84" transform="translate(1105.111976, 155.256529)" fill="#8FACFF" fill-rule="nonzero">
                                    <path d="M22.6666661,2.6666666 C21.9746661,2.04266662 21.1133328,1.58666663 20.1359995,1.38399997 C17.1946662,0.773333314 14.317333,2.65999993 13.705333,5.60133319 L0.355999991,69.8533316 C-0.25866666,72.7933315 1.63199996,75.6733314 4.57199989,76.2813314 C7.51199981,76.8933314 10.3906664,75.0053315 11.0013331,72.0653315 L24.3533327,7.81333314 C24.7613327,5.85199985 24.0546661,3.91733324 22.6666661,2.6666666" id="path86"></path>
                                </g>
                                <g id="g88" transform="translate(437.333348, 1038.333382)" fill="#8FACFF" fill-rule="nonzero">
                                    <path d="M1.3333333,19.9999995 C1.06133331,20.8906661 1.01466664,21.8639995 1.2453333,22.8359994 C1.93599995,25.758666 4.86533321,27.566666 7.78799981,26.8733327 L71.6453315,11.753333 C74.5693315,11.0639997 76.3773314,8.1319998 75.6839981,5.21066654 C74.9919981,2.28799994 72.0626649,0.479999988 69.1399983,1.17199997 L5.28266653,16.2933329 C3.33199992,16.7533329 1.87999995,18.2119995 1.3333333,19.9999995" id="path90"></path>
                                </g>
                                <g id="g92" transform="translate(401.675060, 298.933593)" fill="#8FACFF" fill-rule="nonzero">
                                    <path d="M1.3333333,19.9999995 C1.06133331,20.8919995 1.01333331,21.8639995 1.24399997,22.8359994 C1.93599995,25.758666 4.86399988,27.566666 7.78666647,26.8733327 L71.6453315,11.753333 C74.5679981,11.0639997 76.3773314,8.1319998 75.6826648,5.21066654 C74.9919981,2.28799994 72.0626649,0.479999988 69.1399983,1.17199997 L5.28266653,16.2933329 C3.33199992,16.7533329 1.87866662,18.2119995 1.3333333,19.9999995" id="path94"></path>
                                </g>
                                <g id="Group" transform="translate(1055.333348, 1015.333382)" fill-rule="nonzero">
                                    <g id="g96" transform="translate(-0.000000, 0.000000)" fill="#5F5FFF">
                                        <path d="M266.66666,243.999994 L188.299995,10.6639997 C186.103995,4.12933323 179.805329,-0.12533333 172.923996,0.27866666 L15.2546663,9.54933309 C5.20666654,10.1399997 -1.53199996,20.1173328 1.67199996,29.6599993 L80.0386647,263.01066 C82.2346646,269.545327 88.5333311,273.801326 95.4173309,273.39466 L253.085327,264.11066 C263.133327,263.51866 269.87066,253.539994 266.66666,243.999994" id="path98"></path>
                                    </g>
                                    <g id="g100" transform="translate(49.529999, 80.951731)" fill="#030047">
                                        <polygon id="path102" points="119.999997 14.6666663 115.390664 0.967999976 0.183999995 8.41733312 4.78133321 22.1159994"></polygon>
                                    </g>
                                    <g id="g104" transform="translate(41.431066, 55.846265)" fill="#030047">
                                        <polygon id="path106" points="137.33333 14.6666663 132.710663 0.982666642 0.223999994 9.53733309 4.82799988 23.2386661"></polygon>
                                    </g>
                                    <g id="g108" transform="translate(57.328132, 31.868399)" fill="#030047">
                                        <polygon id="path110" points="113.33333 14.6666663 108.730664 0.982666642 1.2373333 7.9239998 5.84133319 21.6079995"></polygon>
                                    </g>
                                    <g id="g112" transform="translate(89.528664, 246.064394)" fill="#030047">
                                        <path d="M11.9999997,6.6666665 C11.2653331,3.28799992 8.41333312,0.846666645 5.54666653,0.846666645 C2.6826666,0.846666645 0.359999991,3.28799992 0.359999991,6.6666665 C0.359999991,10.5333331 3.32666658,14.1039996 6.98799983,14.1039996 C10.6493331,14.1039996 12.841333,10.5333331 11.9999997,6.6666665" id="path114"></path>
                                    </g>
                                    <g id="g116" transform="translate(114.315064, 243.761061)" fill="#FFCC3E">
                                        <path d="M11.9999997,6.6666665 C11.2653331,3.28799992 8.41199979,0.846666645 5.54533319,0.846666645 C2.68133327,0.846666645 0.358666658,3.28799992 0.358666658,6.6666665 C0.358666658,10.5333331 3.32533325,14.1039996 6.98666649,14.1039996 C10.6479997,14.1039996 12.8399997,10.5333331 11.9999997,6.6666665" id="path118"></path>
                                    </g>
                                    <g id="g120" transform="translate(139.100263, 241.457594)" fill="#FF3E6C">
                                        <path d="M11.9999997,6.6666665 C11.2653331,3.28799992 8.41199979,0.846666645 5.54666653,0.846666645 C2.68133327,0.846666645 0.358666658,3.28799992 0.358666658,6.6666665 C0.358666658,10.5333331 3.32666658,14.1039996 6.98799983,14.1039996 C10.6479997,14.1039996 12.841333,10.5333331 11.9999997,6.6666665" id="path122"></path>
                                    </g>
                                    <g id="g124" transform="translate(61.873732, 119.348930)" fill="#FF3E6C">
                                        <polygon id="path126" points="166.666663 97.3333309 134.243997 0.767999981 0.323999992 9.35866643 32.7493325 105.905331"></polygon>
                                    </g>
                                </g>
                                <g id="g128" transform="translate(854.786382, 719.534515)" fill="#FFCC3E" fill-rule="nonzero">
                                    <path d="M106.666664,87.9999978 C103.803997,87.6559978 100.885331,87.3106645 97.8759976,86.9853312 L97.8599976,86.9853312 C88.7426644,85.9706645 78.7386647,85.0639979 66.7759983,84.7199979 C58.2399985,84.4466646 48.7066654,84.4653312 37.8133324,84.8999979 L37.8133324,77.2706647 C37.8133324,75.5119981 37.5786657,73.7359982 37.0893324,71.9239982 C34.4426658,62.0639984 24.818666,53.3466653 12.5306664,49.7039988 C10.7906664,46.7306655 3.01599992,32.5586659 0.94933331,14.4159996 L17.3159996,13.129333 C17.3159996,13.129333 37.6146657,7.8359998 55.1039986,10.9719997 C59.3079985,11.7159997 63.3679984,12.9666663 66.938665,14.8879996 C66.938665,14.8879996 80.5506647,12.4039997 86.0959978,2.88933326 C87.1466645,1.11199997 89.1586644,0.134666663 91.2253311,0.297333326 C94.305331,0.514666654 98.4386642,1.4213333 100.849331,4.39333322 C100.849331,4.39333322 112.158664,1.43999996 118.42933,10.0839997 C118.42933,10.0839997 125.551997,7.69199981 131.151997,11.353333 C131.151997,11.353333 138.147997,5.49999986 146.59333,11.353333 C155.039996,17.2079996 157.033329,33.4653325 154.170663,45.4626655 C153.971996,46.2959988 153.735996,47.1119988 153.481329,47.8906655 C153.481329,47.8906655 166.874662,45.0453322 175.973329,51.425332 L175.990662,51.4439987 C177.095996,52.2226654 178.130662,53.129332 179.073329,54.1986653 C187.807995,64.1119984 143.20533,92.3866644 106.666664,87.9999978" id="path130"></path>
                                </g>
                                <g id="g132" transform="translate(824.600250, 775.236247)" fill="#030047" fill-rule="nonzero">
                                    <path d="M67.9999983,30.6666659 C67.9999983,30.1773326 67.9813316,29.6879993 67.9453316,29.1986659 C67.8733316,28.1839993 67.710665,27.150666 67.474665,26.1173327 C67.4199983,25.8453327 67.3479983,25.5919994 67.2759983,25.3199994 C63.6866651,11.889333 47.1039988,0.581333319 28.5439993,1.32399997 C13.9906663,1.90399995 3.67733324,9.4253331 1.2853333,19.3933328 C0.94133331,20.8439995 0.759999981,22.3479994 0.759999981,23.9066661 C0.759999981,27.222666 1.59333329,30.7026659 3.35199992,34.2373325 C3.51466658,34.5813325 3.69599991,34.9079991 3.87733324,35.2346658 C11.6519997,49.3346654 31.4253325,56.4026653 47.5199988,52.7239987 C60.0799985,49.8413321 67.9999983,40.8893323 67.9999983,30.6666659" id="path134"></path>
                                </g>
                                <g id="g136" transform="translate(709.693986, 1195.479170)" fill="#030047" fill-rule="nonzero">
                                    <path d="M18.6666662,0 L10.0759997,0 L4.63866655,19.9359995 C4.63866655,19.9359995 -5.96399985,51.725332 9.4773331,71.7173315 C9.65866643,71.9879982 9.85866642,72.2426649 10.0759997,72.4959982 C10.0759997,72.4959982 18.7213329,80.5613313 35.0506658,84.3493312 C32.4039992,78.5853314 17.1253329,43.4066656 18.6666662,0" id="path138"></path>
                                </g>
                                <g id="g140" transform="translate(727.387986, 1109.943972)" fill="#FFCC3E" fill-rule="nonzero">
                                    <path d="M151.999996,47.9999988 L151.999996,47.9826655 C148.247996,31.3799992 140.92533,14.997333 128.311997,0.351999991 C128.311997,0.351999991 135.56133,38.4133324 119.250664,34.7879991 C61.2533318,22.1013328 55.8159986,34.7879991 37.6919991,34.7879991 C19.8759995,34.7879991 29.8986659,1.51199996 30.2426659,0.389333324 C19.7493328,14.525333 12.6626664,29.1506659 8.07733313,43.5959989 L8.07733313,43.6319989 C3.52799991,57.9693319 1.44399996,72.1413315 0.971999976,85.5346645 C-0.567999986,128.942663 14.7106663,164.121329 17.3573329,169.883996 C29.9706659,172.819996 47.1706655,173.182662 68.502665,165.279996 C102.485331,152.702663 121.606664,157.595996 130.123997,161.746663 C133.31333,163.323996 137.19333,161.782663 138.551997,158.502663 C143.227996,147.19333 152.018663,122.906664 154.591996,94.597331 C155.933329,79.735998 155.570663,63.7866651 151.999996,47.9999988" id="path142"></path>
                                </g>
                                <g id="g144" transform="translate(713.863853, 1194.561170)" fill="#030047" fill-rule="nonzero">
                                    <path d="M185.333329,22.6666661 L174.458662,9.97999975 L168.725329,0.345333325 C166.206663,32.5546659 159.161329,57.0213319 152.075996,73.8853315 C150.699996,77.1586647 146.83733,78.7066647 143.647996,77.1293314 C135.130663,72.9786648 116.00933,68.0853316 82.0266646,80.663998 C60.6946651,88.5653311 43.4946656,88.2026645 30.8813326,85.2666645 C14.5506663,81.4786646 5.90533319,73.4146648 5.90533319,73.4146648 C5.68799986,73.1599982 5.4893332,72.9066648 5.30666653,72.6346649 C1.71999996,80.4826647 -3.82666657,96.9386642 4.09333323,111.474664 C14.9679996,131.410663 118.274664,189.407995 154.522663,104.223997 C154.522663,104.223997 210.707995,98.7879975 185.333329,22.6666661" id="path146"></path>
                                </g>
                                <g id="g148" transform="translate(735.053319, 1059.317707)" fill="#030047" fill-rule="nonzero">
                                    <path d="M133.33333,34.6666658 C130.32533,30.1719992 126.37333,25.5319994 121.69733,21.1653328 C109.463997,9.72799976 92.3906644,0.230666661 75.3359981,0.230666661 C51.7759987,0.230666661 28.214666,18.3559995 17.3399996,34.6666658 C15.5453329,37.3666657 13.9319997,40.2306667 12.4999997,43.1853323 C1.64399996,65.4773317 0.466666655,93.0626643 0.41199999,94.2226643 C4.99733321,79.7773313 12.0826664,65.1519984 22.5773328,51.0146654 C22.2333328,52.1386654 12.2106664,85.4146645 30.0266659,85.4146645 C48.1506655,85.4146645 53.5879987,72.7266648 111.583997,85.4146645 C127.895997,89.0386644 120.646664,50.9786654 120.646664,50.9786654 C133.259997,65.622665 140.582663,82.0066646 144.334663,98.6093309 C144.986663,91.3946644 147.342663,55.6719986 133.33333,34.6666658" id="path150"></path>
                                </g>
                                <g id="g152" transform="translate(776.807984, 1097.895173)" fill="#FFFFFF" fill-rule="nonzero">
                                    <path d="M0,29.3333326 C0,29.3333326 29.2719993,14.833333 61.7973318,29.3333326 C61.7973318,29.3333326 50.8239987,0.257333327 31.3666659,0.563999986 C11.5839997,0.877333311 1.01599997,26.3239993 0,29.3333326" id="path154"></path>
                                </g>
                                <g id="g156" transform="translate(747.457718, 1004.749308)" fill="#FFCC3E" fill-rule="nonzero">
                                    <path d="M85.3333312,1.3333333 C15.4293329,3.67199991 0.0959999976,63.4813317 0.0959999976,63.4813317 L0.0959999976,97.7533309 C1.52799996,94.7999976 3.14133325,91.9359977 4.93599988,89.2346644 C15.8093329,72.9239982 39.3706657,54.7999986 62.9319984,54.7999986 C79.9866647,54.7999986 97.0599976,64.2959984 109.293331,75.7333314 C110.978664,72.1986649 112.809331,68.0479983 114.530664,63.5346651 C124.535997,37.4906657 131.259997,-0.206666661 85.3333312,1.3333333" id="path158"></path>
                                </g>
                                <g id="g160" transform="translate(600.887322, 835.970646)" fill="#5F5FFF" fill-rule="nonzero">
                                    <path d="M146.666663,0 L3.54133324,0 C3.54133324,0 -8.1119998,76.1213314 21.3933328,150.70133 C36.7626657,180.389329 56.2266653,199.309328 75.2026648,211.343995 C186.502662,180.877329 146.666663,0 146.666663,0" id="path162"></path>
                                </g>
                                <g id="g164" transform="translate(616.149055, 736.524115)" fill="#FFCC3E" fill-rule="nonzero">
                                    <path d="M214.666661,39.999999 C214.666661,39.999999 203.846662,22.6559994 202.395995,0.326666659 L43.4479989,12.741333 L43.4479989,12.7599997 L33.3719992,13.5386663 C17.2599996,14.789333 4.37333322,27.258666 2.37999994,43.2986656 C0.0053333332,62.6546651 0.0959999976,85.8173312 0.458666655,99.4466642 L127.235997,99.4466642 C128.323997,92.6866643 133.56133,87.1946645 140.466663,85.8719979 C168.106662,80.5973313 191.794662,76.7373314 212.327995,73.9466648 C212.146661,73.6199982 211.966661,73.2933315 211.802661,72.9493315 C210.045328,69.4159983 209.210661,65.9359984 209.210661,62.6186651 L209.210661,53.521332 C209.210661,48.4279988 211.167995,43.7706656 214.666661,39.999999" id="path166"></path>
                                </g>
                                <g id="g168" transform="translate(926.299447, 722.115849)" fill="#FF3E6C" fill-rule="nonzero">
                                    <path d="M29.3333326,0 C28.9319993,0 28.5279993,0.13333333 28.190666,0.40799999 C27.4159993,1.03866664 27.298666,2.18133328 27.9293326,2.95866659 C28.5279993,3.68933324 28.9586659,4.54133322 29.2186659,5.49599986 C30.8479992,11.6306664 31.1013326,38.6946657 1.81866662,49.0373321 C0.874666645,49.3719988 0.379999991,50.4079987 0.711999982,51.3519987 C1.04666664,52.2959987 2.07999995,52.7826653 3.02666659,52.457332 C32.0399992,42.2079989 35.5653324,15.269333 32.7199992,4.55466655 C32.3226659,3.09866659 31.6573325,1.79599996 30.7413326,0.667999983 C30.3813326,0.229333328 29.8613326,0 29.3333326,0" id="path170"></path>
                                </g>
                                <g id="g172" transform="translate(854.331316, 792.607447)" fill="#FF3E6C" fill-rule="nonzero">
                                    <path d="M13.333333,0 C12.9346663,0 12.533333,0.130666663 12.1986664,0.39999999 L1.88399995,8.70533312 C1.22666664,9.23466644 1.02133331,10.1453331 1.38666663,10.9039997 L10.4146664,29.6879993 C10.8479997,30.5866659 11.9279997,30.9746659 12.833333,30.5359992 C13.7346663,30.1026659 14.1146663,29.0199993 13.681333,28.1159993 L5.2773332,10.6279997 L14.4719996,3.22399992 C15.2519996,2.59599994 15.3733329,1.45466663 14.7479996,0.675999983 C14.3879996,0.231999994 13.8639997,0 13.333333,0" id="path174"></path>
                                </g>
                                <g id="g176" transform="translate(943.880247, 727.805982)" fill="#FF3E6C" fill-rule="nonzero">
                                    <path d="M29.3333326,0 C28.9466659,0 28.5573326,0.12533333 28.2253326,0.378666657 C27.434666,0.993333308 27.2893327,2.13199995 27.902666,2.92266659 C28.050666,3.11466659 28.1839993,3.30666658 28.3159993,3.51466658 C31.2919992,8.1239998 30.9519992,16.1559996 27.3919993,25.5599994 C22.8359994,37.5879991 12.841333,51.2773321 2.54799994,54.1666653 C1.58399996,54.4386653 1.02266664,55.4386653 1.2933333,56.4026653 C1.56399996,57.3666652 2.56933327,57.9266652 3.52799991,57.6573319 C15.5106663,54.293332 26.0559993,39.3253324 30.7813326,26.842666 C34.7533325,16.3533329 34.9679991,7.13599982 31.3653325,1.55599996 C31.1786659,1.25999997 30.9853326,0.982666642 30.7693326,0.702666649 C30.4119992,0.241333327 29.8746659,0 29.3333326,0" id="path178"></path>
                                </g>
                                <g id="g180" transform="translate(967.274780, 729.075448)" fill="#FF3E6C" fill-rule="nonzero">
                                    <path d="M18.6666662,0 C18.0773329,0 17.4999996,0.286666659 17.1519996,0.81599998 C16.6013329,1.65066663 16.8333329,2.77599993 17.6679996,3.32533325 C19.8479995,4.76133321 21.3719995,6.97733316 22.3319994,10.1026664 C26.5573327,23.7893327 20.7399995,47.8026655 1.66799996,55.8186653 C0.746666648,56.2053319 0.311999992,57.2679986 0.699999983,58.1919985 C1.08933331,59.1173319 2.15333328,59.5399985 3.07466659,59.1599985 C24.842666,50.0093321 30.3266659,23.7133327 25.7959994,9.03599977 C24.5973327,5.12933321 22.5333328,2.19066661 19.6613328,0.299999992 C19.3559995,0.0973333309 19.0079995,0 18.6666662,0" id="path182"></path>
                                </g>
                                <g id="g184" transform="translate(989.600246, 765.613848)" fill="#FF3E6C" fill-rule="nonzero">
                                    <path d="M18.6666662,0 C17.9039996,0 17.1946662,0.485333321 16.9453329,1.2493333 C12.837333,13.8266663 1.25066664,19.2479995 1.13466664,19.3013329 C0.223999994,19.7173328 -0.177333329,20.7919995 0.237333327,21.7013328 C0.649333317,22.6106661 1.72399996,23.0159994 2.63333327,22.6026661 C3.16799992,22.3599994 15.7733329,16.5093329 20.3893328,2.37466661 C20.6999995,1.42266663 20.1813328,0.39999999 19.2306662,0.0906666644 C19.0413329,0.0279999993 18.8533329,0 18.6666662,0" id="path186"></path>
                                </g>
                                <g id="g188" transform="translate(928.462247, 880.417978)" fill="#5F5FFF" fill-rule="nonzero">
                                    <path d="M85.3333312,31.9999992 L72.2839982,27.1613327 L0.13333333,0.39199999 C4.42799989,67.3959983 3.37599992,121.043997 2.97733326,135.759997 C2.5066666,152.923996 6.05866652,161.894663 8.88666644,166.262663 C12.365333,163.870663 15.5919996,161.223996 18.4559995,158.287996 C50.3546654,125.62933 85.3333312,31.9999992 85.3333312,31.9999992" id="path190"></path>
                                </g>
                                <g id="g192" transform="translate(675.440120, 802.845047)" fill="#5F5FFF" fill-rule="nonzero">
                                    <path d="M255.999994,213.333328 C256.39866,198.615995 257.45066,144.96933 253.15466,77.9653314 C252.701327,70.9146649 252.19466,63.7199984 251.61466,56.4159986 C250.21866,38.635999 248.423994,20.1493328 246.122661,1.4093333 C237.585327,1.1373333 228.053328,1.15466664 217.159995,1.58933329 L217.159995,3.05733326 C217.159995,13.2799997 209.239995,22.2333328 196.679995,25.114666 C180.585329,28.7946659 160.811996,21.7253328 153.03733,7.62533314 C132.502663,10.4173331 108.814664,14.277333 81.175998,19.5506662 C74.2706648,20.8733328 69.0319983,26.3653327 67.9453316,33.1253325 L72.1133315,33.1253325 C72.1133315,33.1253325 111.950664,214.002661 0.65066665,244.470661 C37.2973324,267.741327 72.1133315,265.385327 72.1133315,265.385327 C72.1133315,265.385327 87.4466645,205.575995 157.350663,203.237328 C203.277328,201.697328 196.553328,239.394661 186.549329,265.439993 C186.549329,265.439993 233.035994,263.51866 261.909327,243.835994 C259.081327,239.467994 255.527994,230.497328 255.999994,213.333328" id="path194"></path>
                                </g>
                                <g id="g196" transform="translate(817.983717, 729.238248)" fill="#8FACFF" fill-rule="nonzero">
                                    <path d="M49.3333321,39.999999 C47.5933321,37.0279991 39.8186657,22.8546661 37.7519991,4.71199988 L37.7519991,4.62266655 C37.4626657,2.28399994 35.5226658,0.526666653 33.1853325,0.526666653 L5.01999987,0.526666653 C4.24133323,0.526666653 3.49866658,0.725333315 2.84533326,1.07066664 C2.59199994,1.21466664 2.35599994,1.3773333 2.11999995,1.55866663 C1.06933331,2.41199994 0.398666657,3.73466657 0.453333322,5.2013332 C0.471999988,5.99999985 0.506666654,6.8146665 0.561333319,7.61199981 C2.01199995,29.9413326 12.8319997,47.2853322 12.8319997,47.2853322 C17.6533329,42.0653323 25.4639994,38.603999 35.1613325,38.223999 C40.0906657,38.023999 44.8933322,38.6773324 49.3333321,39.999999" id="path198"></path>
                                </g>
                                <g id="g200" transform="translate(659.223987, 685.173183)" fill="#5F5FFF" fill-rule="nonzero">
                                    <path d="M250.66666,45.3333322 C247.639994,30.2546659 244.233327,15.3746663 240.354661,0.893333311 L3.45466658,0.893333311 C3.45466658,0.893333311 -0.0613333318,29.8573326 0.373333324,64.0919984 L159.321329,51.677332 C159.266663,50.8799987 159.230663,50.0639987 159.213329,49.2666654 C159.158663,47.7999988 159.829329,46.4759988 160.879996,45.6239989 C161.115996,45.4426655 161.351996,45.2799989 161.605329,45.1359989 C162.257329,44.7906655 162.999996,44.5906656 163.779996,44.5906656 L191.943995,44.5906656 C194.282662,44.5906656 196.222662,46.3493322 196.511995,48.6879988 L196.511995,48.7773321 L212.878661,47.4906655 C212.878661,47.4906655 233.177328,42.1973323 250.66666,45.3333322" id="path202"></path>
                                </g>
                                <g id="g204" transform="translate(926.450514, 770.833314)" fill="#FFCC3E" fill-rule="nonzero">
                                    <path d="M214.666661,218.666661 C206.437328,195.702662 160.077329,67.946665 127.798663,12.8866663 C125.67733,9.27866643 120.42133,5.96266652 113.479997,3.13599992 C110.453331,1.90266662 107.409331,0.905333311 104.326664,0.143999996 C105.431997,0.923999977 106.466664,1.83066662 107.409331,2.89999993 C116.143997,12.813333 71.5413315,41.0866656 35.0026658,36.7013324 C32.1386659,36.3573324 29.2213326,36.0119991 26.2119993,35.6866658 L26.194666,35.6866658 C25.8133327,36.4106658 25.4519994,37.1359991 25.0879994,37.8786657 L0.603999985,88.4266645 C1.18399997,95.7306643 1.69199996,102.926664 2.14399995,109.975997 L74.2959981,136.74533 L76.6893314,129.422663 C79.4426647,121.01333 90.8066644,119.763997 95.3026643,127.375997 C112.591997,156.555996 143.927996,209.622661 151.431996,223.433328 C152.555996,225.498661 152.826663,227.945328 152.102663,230.210661 C149.47333,238.529327 144.85333,260.931993 163.429329,279.52666 C163.429329,279.52666 197.883995,284.945326 213.886661,263.41466 C217.511995,258.53866 216.225328,251.39866 210.914661,248.46266 C208.141328,246.90266 204.498662,245.906661 199.930662,246.467994 C199.930662,246.467994 199.949328,227.727994 214.666661,218.666661" id="path206"></path>
                                </g>
                                <g id="g208" transform="translate(949.858113, 771.919847)" fill="#FF3E6C" fill-rule="nonzero">
                                    <path d="M83.9999979,0 C83.5746646,0 83.1466646,0.14933333 82.8026646,0.453333322 C82.0519979,1.11466664 81.9786646,2.25999994 82.6413313,3.01066659 C82.9773313,3.39333325 84.0039979,4.55999989 82.5013313,7.41999981 C76.7493314,18.3626662 42.1319989,37.4586657 11.8106664,33.8146658 C8.94133311,33.4693325 6.01866652,33.1239992 3.00133326,32.7973325 L2.80533326,32.7866658 C1.80399995,32.7866658 0.983999975,33.5973325 0.983999975,34.5986658 C0.983999975,35.5999991 1.78666662,36.4119991 2.78799993,36.4119991 C5.61066653,36.7279991 8.52133312,37.0693324 11.377333,37.4146657 C41.719999,41.0573323 78.6093314,22.6159994 85.7079979,9.10666644 C88.0279978,4.69466655 86.4853312,1.89199995 85.3599979,0.614666651 C85.0026645,0.207999995 84.5013312,0 83.9999979,0" id="path210"></path>
                                </g>
                                <g id="g212" transform="translate(1108.906243, 1015.546908)" fill="#FF3E6C" fill-rule="nonzero">
                                    <path d="M18.6666662,0 C13.0159997,0 4.44666656,1.36666663 0.731999982,11.8759997 C0.397333323,12.8199997 0.890666644,13.8546663 1.83599995,14.1879996 C2.7826666,14.5226663 3.81466657,14.0266663 4.14666656,13.0839997 C7.73599981,2.94399993 16.7226662,3.45599991 21.5506661,3.72666657 C22.5586661,3.78399991 23.2839994,3.8279999 23.8626661,3.75333324 C24.8559994,3.63199991 25.562666,2.72533327 25.4373327,1.73199996 C25.3159994,0.739999982 24.4186661,0.0066666665 23.4173327,0.157333329 C23.1613328,0.183999995 22.4173328,0.14533333 21.7559995,0.107999997 C20.8999995,0.0599999985 19.8466662,0 18.6666662,0" id="path214"></path>
                                </g>
                                <g id="g216" transform="translate(1089.343710, 983.381442)" fill="#FFCC3E" fill-rule="nonzero">
                                    <path d="M71.9999982,1.3333333 C63.2466651,1.13466664 56.6853319,3.09066659 51.773332,6.11866651 C37.0559991,15.1799996 37.0373324,33.9199992 37.0373324,33.9199992 C41.6053323,33.3586658 45.2493322,34.3546658 48.0213321,35.9146658 C53.3319987,38.8506657 54.6186653,45.9906655 50.9933321,50.8666654 C34.9906658,72.3973315 0.535999987,66.978665 0.535999987,66.978665 C0.535999987,66.978665 56.9746652,158.503996 75.2986648,137.263997 C88.1306645,122.419997 55.1986653,67.5773316 55.1986653,67.5773316 C79.2493314,71.6906649 95.3066643,59.3119985 99.1866642,48.4373321 C103.082664,37.5626657 106.961331,2.11199995 71.9999982,1.3333333" id="path218"></path>
                                </g>
                                <g id="g220" transform="translate(760.631451, 1194.838503)" fill="#030047" fill-rule="nonzero">
                                    <path d="M10.6666664,5.3333332 C10.6666664,2.74133326 8.56533312,0.639999984 5.97333318,0.639999984 C3.38266658,0.639999984 1.27999997,2.74133326 1.27999997,5.3333332 C1.27999997,7.92533314 3.38266658,10.0266664 5.97333318,10.0266664 C8.56533312,10.0266664 10.6666664,7.92533314 10.6666664,5.3333332" id="path222"></path>
                                </g>
                                <g id="g224" transform="translate(838.370383, 1194.838503)" fill="#030047" fill-rule="nonzero">
                                    <path d="M10.6666664,5.3333332 C10.6666664,2.74133326 8.56533312,0.639999984 5.97333318,0.639999984 C3.38266658,0.639999984 1.2813333,2.74133326 1.2813333,5.3333332 C1.2813333,7.92533314 3.38266658,10.0266664 5.97333318,10.0266664 C8.56533312,10.0266664 10.6666664,7.92533314 10.6666664,5.3333332" id="path226"></path>
                                </g>
                                <g id="g228" transform="translate(797.282517, 1156.747971)" fill="#030047" fill-rule="nonzero">
                                    <path d="M14.6666663,0 C11.893333,0 9.1493331,0.859999979 6.8106665,2.5306666 C3.05466659,5.21599987 0.943999976,9.57333309 1.1653333,14.185333 L1.74933329,26.3253327 L5.3693332,26.1519993 L4.78666655,14.0119996 C4.62399988,10.6359997 6.16933318,7.44533315 8.91866644,5.47866653 C11.669333,3.51466658 15.1866663,3.08266659 18.3293329,4.32933323 L19.6666662,0.958666643 C18.0439995,0.315999992 16.3493329,0 14.6666663,0" id="path230"></path>
                                </g>
                                <g id="g232" transform="translate(660.312521, 409.322923)" fill="#030047" fill-rule="nonzero">
                                    <path d="M309.333326,87.9999978 L287.003993,76.1839981 L154.101329,5.82533319 L143.15333,0.026666666 L143.135996,0.0439999989 C143.04533,0.11733333 142.50133,0.551999986 141.431996,1.45866663 C135.179997,6.74933316 110.929331,28.3359993 54.0199986,89.1599978 C36.3306658,108.063997 24.3693327,129.938663 16.3399996,151.906663 C-6.31466651,213.871995 2.36666661,276.743993 2.36666661,276.743993 L221.413328,276.743993 L235.242661,247.021327 L309.333326,87.9999978 Z" id="path234"></path>
                                </g>
                                <g id="g236" transform="translate(647.078121, 409.447856)" fill="#030047" fill-rule="nonzero">
                                    <path d="M154.666663,1.3333333 C154.611996,1.11599997 154.557329,0.91733331 154.485329,0.698666649 L14.1146663,59.0586652 L0.847999979,64.5679984 L29.5746659,151.78133 C37.6039991,129.81333 49.5653321,107.938664 67.254665,89.0346644 C124.163997,28.210666 148.414663,6.62533317 154.666663,1.3333333" id="path238"></path>
                                </g>
                                <g id="g240" transform="translate(880.911448, 655.399717)" fill="#030047" fill-rule="nonzero">
                                    <path d="M18.6666662,30.6666659 C18.6666662,30.6666659 17.7599996,18.2346662 14.6426663,0.943999976 L0.814666646,30.6666659 L18.6666662,30.6666659 Z" id="path242"></path>
                                </g>
                                <g id="g244" transform="translate(882.529315, 655.786384)" fill="#FFFFFF" fill-rule="nonzero">
                                    <path d="M10.6666664,1.3333333 L0.838666646,22.4546661 C0.443999989,23.3053328 0.81199998,24.3159994 1.66266663,24.7119994 L1.86666662,24.806666 C2.7186666,25.202666 3.72933324,24.834666 4.12533323,23.9826661 L13.9519997,2.86133326 C14.3479996,2.01199995 13.9786663,1.00133331 13.1279997,0.605333318 L12.9239997,0.510666654 C12.073333,0.114666664 11.0626664,0.482666655 10.6666664,1.3333333" id="path246"></path>
                                </g>
                                <g id="g248" transform="translate(516.441458, 9.106800)" fill="#8FACFF" fill-rule="nonzero">
                                    <path d="M222.666661,1.3333333 C222.630661,1.02533331 222.575994,0.734666648 222.521328,0.426666656 L0.283999993,29.6959993 C0.302666659,30.0053326 0.321333325,30.2959992 0.375999991,30.5839992 L7.44399981,84.2866646 C8.0599998,88.9626644 12.101333,92.3519977 16.7053329,92.2439977 C17.0306662,92.2439977 17.3759996,92.225331 17.7013329,92.1706644 L116.13333,79.211998 C118.471997,78.903998 120.610664,77.7066647 122.078664,75.8599981 C129.03733,67.086665 153.795996,40.4253323 206.046662,26.1439993 C216.594661,23.2453328 224.098661,12.1706664 222.666661,1.3333333" id="path250"></path>
                                </g>
                                <g id="g252" transform="translate(516.289058, 0.205733)" fill="#8FACFF" fill-rule="nonzero">
                                    <path d="M222.666661,9.3333331 C222.097328,6.74933316 220.650661,4.55733322 218.670661,3.02533326 C216.459995,1.3413333 213.623995,0.491999988 210.657328,0.882666645 L9.86133309,27.318666 C4.21733323,28.062666 0.169333329,32.9999992 0.433333322,38.591999 L222.666661,9.3333331 Z" id="path254"></path>
                                </g>
                                <g id="g256" transform="translate(561.563190, 156.813863)" fill="#FFCC3E" fill-rule="nonzero">
                                    <path d="M239.999994,253.333327 C237.897327,245.775994 235.161327,237.221327 231.609328,227.867994 C221.930661,202.331995 154.201329,79.8866647 109.833331,0.593333319 L0.889333311,15.129333 C33.0239992,94.2039976 80.127998,215.853328 95.6786643,285.35866 C97.9253309,295.381326 99.1399975,304.206659 99.6293308,311.693326 L239.999994,253.333327 Z" id="path258"></path>
                                </g>
                                <g id="g260" transform="translate(532.729857, 88.074264)" fill="#030047" fill-rule="nonzero">
                                    <path d="M138.666663,69.3333316 C116.283997,29.2786659 99.8453308,0.245333327 99.8453308,0.245333327 L1.4133333,13.2026663 C1.08666664,13.257333 0.742666648,13.2759997 0.41599999,13.2759997 C5.05599987,24.1679994 16.0213329,50.1573321 29.7226659,83.8679979 L138.666663,69.3333316 Z" id="path262"></path>
                                </g>
                                <g id="g264" transform="translate(887.950515, 8.841200)" fill="#8FACFF" fill-rule="nonzero">
                                    <path d="M229.333328,24 L6.35333317,0.999999975 C6.31733318,1.29066663 6.26266651,1.58133329 6.22666651,1.88799995 L0.679999983,55.7706653 C0.154666663,60.7919985 3.8159999,65.286665 8.83599978,65.8119984 L9.63466643,65.8839984 L9.63466643,65.902665 L107.577331,75.9973314 C109.931997,76.2506648 112.289331,75.5813314 114.154664,74.1133315 C122.963997,67.206665 153.211996,46.9799988 207.349328,45.1866655 C218.277328,44.8239989 228.137328,35.7799991 229.259994,24.906666 C229.297328,24.5973327 229.314661,24.3066661 229.333328,24" id="path266"></path>
                                </g>
                                <g id="g268" transform="translate(893.278648, 0.841200)" fill="#8FACFF" fill-rule="nonzero">
                                    <path d="M224.001629,31.9999992 C224.045328,29.3559993 223.145328,26.8879993 221.574661,24.9373327 C219.811995,22.7893328 217.250661,21.3053328 214.274661,20.9973328 L12.8146663,0.210666661 C7.15199982,-0.371999991 2.07199995,3.49199991 1.03199997,8.99466644 L224.001629,31.9999992 Z" id="path270"></path>
                                </g>
                                <g id="g272" transform="translate(814.066383, 156.756529)" fill="#FFCC3E" fill-rule="nonzero">
                                    <path d="M171.999996,37.3333324 L67.514665,0.559999986 C52.961332,71.9319982 30.7773326,171.525329 8.1039998,238.801327 C5.74799986,245.778661 3.11999992,252.321327 0.346666658,258.391994 L133.250663,328.749325 C137.40133,319.959992 141.49733,309.121326 144.559996,296.290659 C150.431996,271.55066 163.137329,136.707997 171.999996,37.3333324" id="path274"></path>
                                </g>
                                <g id="g276" transform="translate(880.860648, 74.171865)" fill="#030047" fill-rule="nonzero">
                                    <path d="M114.666664,10.6666664 L16.7239996,0.571999986 C14.5666663,12.3706664 8.83999978,43.3799989 0.719999982,83.1439979 L105.205331,119.91733 C110.678664,58.5319985 114.666664,10.6666664 114.666664,10.6666664" id="path278"></path>
                                </g>
                                <g id="g280" transform="translate(716.503186, 1265.384102)" fill="#FFFFFF" fill-rule="nonzero">
                                    <path d="M2.6666666,0 C2.31999994,0 1.96933328,0.0986666642 1.65999996,0.305333326 C0.827999979,0.862666645 0.605333318,1.98933328 1.16266664,2.82133326 C1.38399997,3.15199992 1.62666663,3.46399991 1.89199995,3.77333324 L2.02933328,3.91733324 C2.39733327,4.25866656 11.2213331,12.357333 27.8319993,16.2106663 C28.8106659,16.4373329 29.7813326,15.8266663 30.0066659,14.853333 C30.2333326,13.877333 29.6266659,12.9039997 28.6519993,12.677333 C13.7906663,9.23199977 5.40666653,2.06666662 4.56933322,1.3253333 C4.42799989,1.15599997 4.29599989,0.983999975 4.17333323,0.80399998 C3.8239999,0.281333326 3.25066659,0 2.6666666,0" id="path282"></path>
                                </g>
                                <g id="g284" transform="translate(720.889319, 834.157579)" fill="#FFFFFF" fill-rule="nonzero">
                                    <path d="M26.666666,0 C26.5373327,0 26.406666,0.0146666663 26.2759993,0.0426666656 C25.2973327,0.25866666 24.6799994,1.2253333 24.894666,2.20133328 C25.1559994,3.38799992 50.4253321,121.46533 1.72266662,181.194662 C1.08933331,181.970662 1.2053333,183.110662 1.98133328,183.745329 C2.7586666,184.374662 3.89866657,184.258662 4.53066655,183.485329 C54.345332,122.39333 28.6986659,2.62533327 28.434666,1.42266663 C28.2479993,0.577333319 27.498666,0 26.666666,0" id="path286"></path>
                                </g>
                                <g id="g288" transform="translate(925.929714, 878.997311)" fill="#FFFFFF" fill-rule="nonzero">
                                    <path d="M2.6666666,0 C2.62799993,0 2.58799994,0.0013333333 2.54799994,0.0026666666 C1.54933329,0.066666665 0.79199998,0.92933331 0.855999979,1.92933329 C2.5146666,27.7893326 3.55066658,54.3986653 3.93866657,81.015998 C3.95333323,82.0159979 4.73733321,82.8253313 5.77733319,82.8031294 C6.77733316,82.7879979 7.57866648,81.9653313 7.56399981,80.9626646 C7.17599982,54.2866653 6.13599985,27.6173326 4.47333322,1.69466662 C4.41199989,0.735999982 3.61466658,0 2.6666666,0" id="path290"></path>
                                </g>
                                <g id="g292" transform="translate(824.600250, 767.236247)" fill="#030047" fill-rule="nonzero">
                                    <path d="M67.9999983,38.6666657 L67.9999983,29.5679993 C67.9999983,27.810666 67.7639983,26.034666 67.2759983,24.2226661 C64.6293317,14.3626663 55.005332,5.64533319 42.7173323,2.00133328 C38.2773324,0.67866665 33.4733325,0.026666666 28.5439993,0.225333328 C18.8479995,0.606666651 11.0359997,4.0679999 6.21599984,9.28799977 C2.71733327,13.057333 0.759999981,17.7159996 0.759999981,22.8079994 L0.759999981,31.9066659 C0.759999981,30.3479992 0.94133331,28.8439993 1.2853333,27.3933326 C3.67733324,17.4253329 13.9906663,9.90399975 28.5439993,9.32399977 C47.1039988,8.58133312 63.6866651,19.8893328 67.2759983,33.3199992 C67.3479983,33.5919992 67.4199983,33.8453325 67.474665,34.1173325 C67.710665,35.1506658 67.8733316,36.1839991 67.9453316,37.1986657 C67.9813316,37.6879991 67.9999983,38.1773324 67.9999983,38.6666657" id="path294"></path>
                                </g>
                                <g id="g296" transform="translate(822.864517, 774.714781)" fill="#FF3E6C" fill-rule="nonzero">
                                    <path d="M31.9999992,0 C31.4013325,0 30.8066659,0.0106666664 30.2066659,0.0359999991 C15.3159996,0.626666651 3.95333323,8.26399979 1.2573333,19.4919995 C1.02533331,20.4653328 1.62399996,21.4439995 2.59733327,21.6786661 C3.56799991,21.9066661 4.55066655,21.3119995 4.78399988,20.3386662 C7.08933316,10.7306664 17.1253329,4.18266656 30.3519992,3.65733324 C47.2053322,2.98533326 63.7439984,13.1439997 67.2599983,26.3079993 C67.3493316,26.642666 67.3959983,26.814666 67.4333316,26.9973327 C67.630665,27.9773326 68.5893316,28.6213326 69.5679983,28.4159993 C70.5493316,28.218666 71.1839982,27.262666 70.9879982,26.2813327 C70.9346649,26.0213327 70.8693316,25.7759994 70.7999982,25.518666 C66.8933317,10.8973331 50.0746654,0 31.9999992,0" id="path298"></path>
                                </g>
                                <g id="g300" transform="translate(1087.782510, 987.686109)" fill="#FF3E6C" fill-rule="nonzero">
                                    <path d="M53.333332,0 C53.009332,0 52.681332,0.0866666645 52.385332,0.269333327 C36.9839991,9.75199976 36.7866657,28.8053326 36.7866657,29.6119993 C36.7866657,30.1319992 37.0079991,30.6266659 37.3973324,30.9719992 C37.7853324,31.3133326 38.2933324,31.4813325 38.819999,31.4133325 C42.4786656,30.9666659 45.7999989,31.5613325 48.6946654,33.1906658 C50.7159987,34.3066658 52.0999987,36.1946658 52.5999987,38.5106657 C53.1279987,40.9466656 52.581332,43.4866656 51.0999987,45.4799989 C35.9253324,65.894665 2.71333327,60.9346651 2.37866661,60.8826651 C1.38399997,60.7386651 0.463999988,61.4026651 0.305333326,62.3919984 C0.151999996,63.3813317 0.826666646,64.3079984 1.81599995,64.4639984 C3.26933325,64.6933317 37.5439991,69.7973316 54.009332,47.6426655 C56.1146653,44.8106655 56.8933319,41.2026656 56.1439986,37.7439991 C55.4266653,34.4399991 53.357332,31.6253325 50.4613321,30.0239992 C47.4759988,28.3453326 44.1453322,27.522666 40.539999,27.6519993 C41.027999,22.7826661 43.3466656,10.0919997 54.285332,3.35599992 C55.137332,2.8306666 55.4026653,1.71599996 54.8786653,0.861333312 C54.5346653,0.306666659 53.9426653,0 53.333332,0" id="path302"></path>
                                </g>
                                <g id="g304" transform="translate(516.052791, 7.743466)" fill="#030047" fill-rule="nonzero">
                                    <polygon id="path306" points="222.666661 0 0.433333322 29.2573326 0.905333311 32.8519992 223.138661 3.59199991"></polygon>
                                </g>
                                <g id="g308" transform="translate(893.163448, 8.031200)" fill="#030047" fill-rule="nonzero">
                                    <polygon id="path310" points="1.3333333 0 0.961333309 3.60666658 223.929328 26.614666 224.301328 23.0079994"></polygon>
                                </g>
                                <g id="g312" transform="translate(680.592387, 412.296923)" fill="#FFFFFF" fill-rule="nonzero">
                                    <path d="M117.33333,0 C116.90533,0 116.47333,0.14933333 116.12933,0.458666655 C105.695997,9.74933309 80.9466646,33.0799992 32.4159992,84.9466645 C19.4706662,98.7826642 8.65199978,115.223997 0.261333327,133.810663 C-0.14933333,134.722663 0.255999994,135.79733 1.16799997,136.206663 C2.08266661,136.619997 3.15466659,136.214663 3.56666658,135.30133 C11.7919997,117.07733 22.3893328,100.969331 35.0626658,87.4239978 C83.4959979,35.6599991 108.153331,12.4159997 118.539997,3.16533325 C119.287997,2.5 119.354664,1.3533333 118.687997,0.606666651 C118.330664,0.203999995 117.83333,0 117.33333,0" id="path314"></path>
                                </g>
                                <g id="g316" transform="translate(699.811853, 1128.145838)" fill="#5F5FFF" fill-rule="nonzero">
                                    <path d="M33.3333325,2.6666666 L22.4413328,0.943999976 C17.9093329,0.219999995 13.6146663,3.17466659 12.8706663,7.52399981 L12.653333,8.84666645 L12.6359997,8.84666645 L2.15999995,69.7079983 L0.365333324,80.2013313 L0.130666663,81.5253313 C-0.611999985,85.8746645 2.46799994,89.9879978 6.99999982,90.6946644 L14.593333,91.8906644 L17.8919996,92.417331 C22.4039994,93.141331 26.6999993,90.1879977 27.4613326,85.8559979 L40.183999,11.837333 C40.9266656,7.48799981 37.8639991,3.37333325 33.3333325,2.6666666" id="path318"></path>
                                </g>
                                <g id="g320" transform="translate(680.132120, 1136.992772)" fill="#030047" fill-rule="nonzero">
                                    <path d="M32.3333325,-1.13686838e-13 L32.3159992,-1.13686838e-13 C16.4933329,3.26266659 3.60666655,15.4599996 0.815999955,31.6626659 C-1.06933333,42.6093323 2.02933326,53.2306653 8.49999976,61.4226651 C11.617333,65.390665 15.5319996,68.7799983 20.0453328,71.3546649 L21.8586661,60.8613318 L32.3333325,-1.13686838e-13 Z" id="path322"></path>
                                </g>
                                <g id="g324" transform="translate(871.855449, 1128.337172)" fill="#5F5FFF" fill-rule="nonzero">
                                    <path d="M41.3333323,81.3333313 L41.0986656,80.0093313 L39.303999,69.4986649 L34.9719991,44.3239989 L28.8279993,8.65599978 L28.5919993,7.33333315 C27.8493326,2.98266659 23.5546661,0.0279999993 19.0226662,0.753333314 L8.13066646,2.4746666 C3.61733324,3.18266659 0.535999987,7.29599982 1.27999997,11.645333 L14.021333,85.6653312 C14.7639996,89.9959978 19.0586662,92.9506643 23.5906661,92.225331 L26.870666,91.6999977 L34.4653325,90.5039977 C38.995999,89.7973311 42.0773323,85.6826645 41.3333323,81.3333313" id="path326"></path>
                                </g>
                                <g id="g328" transform="translate(900.183581, 1136.655572)" fill="#030047" fill-rule="nonzero">
                                    <path d="M32,31.9999992 C29.2079993,15.7973329 16.3053329,3.58133324 0.499999988,0.337333325 L6.64399983,36.0053324 L10.9586664,61.1973318 L12.7706663,71.6919982 C17.2826662,69.1173316 21.1973328,65.7279984 24.3146661,61.7599985 C30.7853326,53.5679987 33.8839992,42.9466656 32,31.9999992" id="path330"></path>
                                </g>
                                <g id="g332" transform="translate(689.106787, 1266.686102)" fill="#030047" fill-rule="nonzero">
                                    <path d="M234.666661,2.6666666 L216.361328,0.618666651 C213.570661,25.4119994 203.874662,53.2866653 177.974662,72.9879982 C142.90533,99.6839975 92.0119977,99.6839975 56.9426652,72.9879982 C31.0439992,53.2866653 21.3466661,25.4119994 18.5559995,0.618666651 L0.25066666,2.6666666 C3.42266658,31.2293326 14.8586663,63.7439984 45.9773322,87.4146645 C87.3906645,118.931997 147.526663,118.931997 188.939995,87.4146645 C220.058661,63.7439984 231.494661,31.2293326 234.666661,2.6666666" id="path334"></path>
                                </g>
                                <g id="g336" transform="translate(897.831981, 1198.415303)" fill="#5F5FFF" fill-rule="nonzero">
                                    <path d="M26.666666,0 C23.5493327,3.96933323 19.6346662,7.35866648 15.1226663,9.93199975 L15.3573329,11.2546664 C16.0999996,15.6053329 13.0199997,19.7186662 8.48799979,20.4253328 L0.894666644,21.6213328 C2.4906666,33.2053325 3.86666657,48.6693321 2.81333326,63.3666651 C2.61599993,66.1279983 4.62799988,68.5479983 7.37733315,68.8599983 L7.63733314,68.8893316 L25.9413327,70.9373316 L25.9613327,70.9399982 C28.8853326,71.2626649 31.4759992,69.0839983 31.6973325,66.150665 C33.7813325,38.5106657 28.6573326,9.80266642 26.666666,0" id="path338"></path>
                                </g>
                                <g id="g340" transform="translate(682.404920, 1197.370370)" fill="#5F5FFF" fill-rule="nonzero">
                                    <path d="M31.9999992,22.6666661 L24.4066661,21.4706661 C19.8746662,20.7639995 16.7946662,16.6493329 17.5373329,12.2999997 L17.7733329,10.9759997 C13.2599997,8.40266646 9.3453331,5.01333321 6.22799984,1.04533331 C4.23599989,10.8466664 -0.870666645,39.5546657 1.21466664,67.194665 C1.43599996,70.1279982 4.0279999,72.3053315 6.95199983,71.9826649 L25.2573327,69.9346649 L25.5159994,69.9053316 C28.266666,69.5933316 30.2786659,67.1733317 30.0813326,64.4119984 C29.0266659,49.7146654 30.4039992,34.2506658 31.9999992,22.6666661" id="path342"></path>
                                </g>
                                <g id="g344" transform="translate(711.132119, 1135.659438)" fill="#5F5FFF" fill-rule="nonzero" stroke="#000000" stroke-width="1.3333333">
                                    <path d="M1.3333333,1.3333333 L1.31599997,1.3333333" id="path346"></path>
                                </g>
                                <g id="g348" transform="translate(698.844386, 1208.347036)" stroke="#FFFFFF" stroke-linecap="round" stroke-width="2.6666666">
                                    <path d="M1.3333333,0 L1.09733331,1.32399997 C0.354666658,5.67333319 3.43599991,9.78666642 7.96666647,10.4946664 L15.5599996,11.6906664" id="path350"></path>
                                </g>
                                <g id="g352" transform="translate(898.726515, 1208.037036)" stroke="#FFFFFF" stroke-linecap="round" stroke-width="2.6666666">
                                    <path d="M0,11.9999997 L7.59333314,10.8039997 C12.125333,10.0973331 15.205333,5.98266652 14.4626663,1.63333329 L14.2279996,0.309333326" id="path354"></path>
                                </g>
                                <g id="g408" transform="translate(462.545592, 1137.230505)" fill="#5F5FFF" fill-rule="nonzero">
                                    <path d="M191.999995,50.6666654 L155.094663,40.8666656 C144.87333,23.7639994 128.46533,10.2719997 107.871997,4.07066656 C64.0306651,-9.12133311 17.8026662,15.7093329 4.61066655,59.5519985 C-8.58133312,103.379997 16.2493329,149.62133 60.0919985,162.813329 C103.919997,176.005329 150.16133,151.174663 163.353329,107.331997 C165.902663,98.8693309 167.033329,90.3239977 166.883996,81.9426646 L191.999995,50.6666654 Z" id="path410"></path>
                                </g>
                                <g id="g412" transform="translate(508.458258, 1194.257837)" fill="#030047" fill-rule="nonzero">
                                    <path d="M51.9999987,11.9999997 L16.5199996,1.31999997 C14.689333,0.769333314 12.7599997,1.80533329 12.209333,3.63599991 L0.54933332,42.3706656 C-1.21999997,48.2466655 2.10933328,54.4426653 7.9839998,56.2106653 L28.8173326,62.4813318 C34.6919991,64.2493317 40.887999,60.9199985 42.6559989,55.045332 L54.3159986,16.3093329 C54.8666653,14.4799996 53.8306653,12.5506664 51.9999987,11.9999997" id="path414"></path>
                                </g>
                                <g id="g416" transform="translate(515.871724, 1195.387303)" fill="#FF3E6C" fill-rule="nonzero">
                                    <path d="M17.3333329,2.66666664 L12.353333,1.16666664 L1.37866663,37.6266657 C1.15199997,38.3773324 1.57733329,39.1693324 2.32799994,39.3946657 L4.59066655,40.075999 C5.3413332,40.3026657 6.13333318,39.8773323 6.35866651,39.1266657 L17.3333329,2.66666664 Z" id="path418"></path>
                                </g>
                                <g id="g420" transform="translate(527.874924, 1199.000637)" fill="#FF3E6C" fill-rule="nonzero">
                                    <path d="M17.3333329,2.66666664 L12.353333,1.16666664 L1.37866663,37.6266657 C1.15199997,38.3773324 1.57733329,39.167999 2.32799994,39.3946657 L4.59066655,40.075999 C5.3413332,40.3013323 6.13333318,39.875999 6.35866651,39.1253324 L17.3333329,2.66666664 Z" id="path422"></path>
                                </g>
                                <g id="g424" transform="translate(539.878257, 1202.613303)" fill="#FF3E6C" fill-rule="nonzero">
                                    <path d="M17.3333329,2.6666666 L12.353333,1.16799997 L1.37866663,37.6266657 C1.15199997,38.3773324 1.57733329,39.1693324 2.32799994,39.3946657 L4.59066655,40.075999 C5.3413332,40.3026657 6.13333318,39.8773323 6.35866651,39.1266657 L17.3333329,2.6666666 Z" id="path426"></path>
                                </g>
                                <g id="g428" transform="translate(528.338524, 1191.238904)" fill="#030047" fill-rule="nonzero">
                                    <polygon id="path430" points="29.3333326 7.9999998 2.83599993 0.0253333327 1.13066664 5.69066652 27.6279993 13.6666663"></polygon>
                                </g>
                                <g id="g432" transform="translate(532.652390, 1186.085970)" fill="#030047" fill-rule="nonzero">
                                    <polygon id="path434" points="23.9999994 6.6666665 2.95333326 0.331999992 1.24799997 5.99866652 22.2946661 12.333333"></polygon>
                                </g>
                                <g id="g436" transform="translate(539.822257, 1148.841705)" fill="#FF3E6C" fill-rule="nonzero">
                                    <polygon id="path438" points="23.9999994 3.9999999 11.8359997 0.338666658 0.223999994 38.9133324 12.389333 42.5746656"></polygon>
                                </g>
                                <g id="g440" transform="translate(493.126258, 1219.737570)" fill="#030047" fill-rule="nonzero">
                                    <path d="M7.9999998,6.6666665 C9.07333311,5.37066653 8.37199979,3.01733326 6.43199984,1.41066663 C4.49199989,-0.195999995 2.04933328,-0.446666655 0.975999976,0.849333312 C-0.0973333309,2.14399995 0.605333318,4.49866655 2.54399994,6.10399985 C4.48399989,7.71066647 6.92666649,7.96266647 7.9999998,6.6666665" id="path442"></path>
                                </g>
                                <g id="g444" transform="translate(485.078792, 1225.143169)" fill="#030047" fill-rule="nonzero">
                                    <path d="M15.9999996,1.3333333 L15.4146663,0.849333312 L0.563999986,18.7773329 L1.14266664,19.2706662 C1.1693333,19.2413329 3.83733324,16.2746663 7.37999982,17.1493329 C11.449333,18.1533329 12.9986663,15.1026663 13.0146663,15.0719996 C13.0146663,15.0719996 11.0213331,17.2653329 7.56133314,16.4119996 C5.80933319,15.9786663 4.27333323,16.3519996 3.08933326,16.9199996 L15.9999996,1.3333333 Z" id="path446"></path>
                                </g>
                                <g id="g448" transform="translate(557.412790, 1246.013702)" fill="#030047" fill-rule="nonzero">
                                    <path d="M9.3333331,2.6666666 C8.93333311,1.03199997 6.6266665,0.191999995 4.1799999,0.789333314 C1.73333329,1.38799997 0.0746666648,3.19733325 0.473333322,4.83333321 C0.873333312,6.46799984 3.18133325,7.30799982 5.62799986,6.70933317 C8.07466646,6.11066651 9.73333309,4.30133323 9.3333331,2.6666666" id="path450"></path>
                                </g>
                                <g id="g452" transform="translate(576.628923, 1244.425036)" fill="#030047" fill-rule="nonzero">
                                    <path d="M9.3333331,2.6666666 C8.93333311,1.03199997 6.6266665,0.191999995 4.1799999,0.789333314 C1.73333329,1.38799997 0.0746666648,3.19733325 0.473333322,4.83333321 C0.873333312,6.46799984 3.18133325,7.30799982 5.62799986,6.70933317 C8.07466646,6.11066651 9.73333309,4.30133323 9.3333331,2.6666666" id="path454"></path>
                                </g>
                                <g id="g456" transform="translate(565.691990, 1246.249969)" fill="#030047" fill-rule="nonzero">
                                    <path d="M5.3333332,19.9999995 L6.07866651,23.0493328 L24.5773327,21.6786661 L23.8333332,18.6373329 L5.3333332,19.9999995 Z M6.53333317,28.1093326 L4.56399989,20.0559995 L4.37999989,19.3026662 L0.293333326,2.5866666 L1.03066664,2.40666661 L5.1493332,19.2466662 L23.6493327,17.8839996 L19.5253328,1.02133331 L20.2639995,0.841333312 L24.4173327,17.8293329 L24.6026661,18.5826662 L26.5333327,26.4813327 L6.53333317,28.1093326 Z" id="path458"></path>
                                </g>
                                <g id="g460" transform="translate(537.589857, 1193.194637)" stroke="#FFFFFF" stroke-linecap="round" stroke-width="1.3333333">
                                    <path d="M0,0 L14.345333,4.31733323" id="path462"></path>
                                </g>
                                <g id="g464" transform="translate(688.610653, 1391.923832)" fill="#FFCC3E" fill-rule="nonzero">
                                    <path d="M23.9999994,21.3333328 C27.4093326,17.2159996 25.1799994,9.74266642 19.0186662,4.63866655 C12.857333,-0.465333322 5.09866654,-1.26399997 1.68799996,2.85333326 C-1.72133329,6.97066649 0.507999987,14.4439996 6.66933317,19.5479995 C12.8306663,24.6506661 20.5893328,25.450666 23.9999994,21.3333328" id="path466"></path>
                                </g>
                                <g id="g468" transform="translate(664.205721, 1411.360631)" fill="#FFCC3E" fill-rule="nonzero">
                                    <path d="M49.3333321,2.6666666 L47.4733321,1.12666664 L0.302666659,58.0786652 L2.13866661,59.6453318 C2.22266661,59.5493318 10.6986664,50.1279987 21.9506661,52.905332 C34.8759991,56.0959986 39.799999,46.4026655 39.847999,46.3053322 C39.847999,46.3053322 33.5186658,53.2746653 22.5293328,50.5613321 C16.9626662,49.1866654 12.0826664,50.3733321 8.32399979,52.177332 L49.3333321,2.6666666 Z" id="path470"></path>
                                </g>
                                <g id="g472" transform="translate(892.018248, 1373.570899)" fill="#FF3E6C" fill-rule="nonzero">
                                    <path d="M21.3333328,5.3333332 C20.4186662,1.59733329 15.145333,-0.323999992 9.55333309,1.04399997 C3.96266657,2.41199994 0.169333329,6.54933317 1.08266664,10.2853331 C1.99733328,14.021333 7.27066648,15.9426663 12.8626663,14.5746663 C18.4546662,13.2079997 22.2479994,9.07066644 21.3333328,5.3333332" id="path474"></path>
                                </g>
                                <g id="g476" transform="translate(935.980514, 1369.991566)" fill="#FF3E6C" fill-rule="nonzero">
                                    <path d="M21.3333328,5.3333332 C20.4186662,1.59733329 15.145333,-0.323999992 9.55333309,1.04399997 C3.96266657,2.41066661 0.169333329,6.54799984 1.08266664,10.2853331 C1.99599995,14.021333 7.27066648,15.9426663 12.861333,14.5746663 C18.4546662,13.2066663 22.2466661,9.06933311 21.3333328,5.3333332" id="path478"></path>
                                </g>
                                <g id="g480" transform="translate(912.035181, 1374.903566)" fill="#FF3E6C" fill-rule="nonzero">
                                    <path d="M11.9999997,43.9999989 L13.7039997,50.9693321 L55.9839986,47.8373321 L54.285332,40.8853323 L11.9999997,43.9999989 Z M14.745333,62.5359984 L10.2426664,44.1253322 L9.82133309,42.4039989 L0.478666655,4.19999989 L2.16666661,3.78666657 L11.5799997,42.2786656 L53.8626653,39.163999 L44.4386656,0.621333318 L46.1266655,0.209333328 L55.6213319,39.0373324 L56.0413319,40.7586656 L60.4573318,58.8146652 L14.745333,62.5359984 Z" id="path482"></path>
                                </g>
                                <g id="g484" transform="translate(832.954383, 701.084649)" fill="#030047" fill-rule="nonzero">
                                    <path d="M227.999994,7.9999998 L227.999994,7.98133313 C227.999994,4.1759999 225.045328,1.03999997 221.294661,0.750666648 C221.113328,0.713333316 220.914661,0.713333316 220.713328,0.713333316 L8.0839998,0.713333316 C4.05866657,0.713333316 0.797333313,3.9759999 0.797333313,7.98133313 L0.797333313,7.9999998 C0.797333313,12.005333 4.05866657,15.2679996 8.0839998,15.2679996 L220.713328,15.2679996 C220.914661,15.2679996 221.113328,15.2679996 221.294661,15.2319996 C222.617328,15.1399996 223.849328,14.669333 224.882661,13.9266663 L224.901328,13.9266663 C226.786661,12.621333 227.999994,10.4466664 227.999994,7.9999998" id="path486"></path>
                                </g>
                                <g id="g488" transform="translate(1053.143177, 701.084649)" fill="#030047" fill-rule="nonzero">
                                    <path d="M277.333326,7.9999998 C277.333326,5.98799985 276.51866,4.1759999 275.213326,2.85333326 C273.89066,1.5293333 272.07866,0.713333316 270.06666,0.713333316 L1.68533329,0.713333316 C1.4853333,0.713333316 1.28666663,0.713333316 1.10533331,0.750666648 C4.85733321,1.03999997 7.81066647,4.1759999 7.81066647,7.98133313 L7.81066647,7.9999998 C7.81066647,10.4466664 6.59733317,12.621333 4.71199988,13.9266663 L4.69466655,13.9266663 C3.65999991,14.669333 2.42799994,15.1399996 1.10533331,15.2319996 C1.28666663,15.2679996 1.4853333,15.2679996 1.68533329,15.2679996 L270.06666,15.2679996 C270.807993,15.2679996 271.515993,15.1586663 272.18666,14.941333 C275.177326,14.0346663 277.333326,11.2613331 277.333326,7.9999998" id="path490"></path>
                                </g>
                                <g id="g492" transform="translate(1055.088511, 714.845049)" fill="#030047" fill-rule="nonzero">
                                    <path d="M379.999991,221.333328 L270.241327,1.1813333 C269.57066,1.39866663 268.86266,1.50799996 268.121327,1.50799996 L0.066666665,1.50799996 L109.697331,221.333328 L379.999991,221.333328 Z" id="path494"></path>
                                </g>
                                <g id="g496" transform="translate(1044.786378, 716.178382)" fill="#030047" fill-rule="nonzero">
                                    <path d="M119.999997,219.999995 L10.3679997,0.174666662 L10.0413331,0.174666662 C9.84266642,0.174666662 9.64266643,0.174666662 9.46266643,0.138666663 C9.2813331,0.174666662 9.08266644,0.174666662 8.88133311,0.174666662 L0.182666662,0.174666662 L113.113331,226.597328 L113.566664,226.597328 L119.999997,219.999995 Z" id="path498"></path>
                                </g>
                                <g id="g500" transform="translate(1157.755175, 936.178377)" fill="#030047" fill-rule="nonzero">
                                    <polygon id="path502" points="277.333326 0 7.03066649 0 0.597333318 6.59733317 270.44666 6.59733317"></polygon>
                                </g>
                                <g id="g504" transform="translate(1070.151044, 746.421848)" stroke="#FFFFFF" stroke-linecap="round" stroke-width="2.6666666">
                                    <polyline id="path506" points="0 0 94.6359976 189.755995 312.569326 189.755995"></polyline>
                                </g>
                                <g id="g508" transform="translate(1054.897177, 715.019449)" stroke="#FFFFFF" stroke-linecap="round" stroke-width="2.6666666">
                                    <path d="M237.333327,1.3333333 L0.257333327,1.3333333" id="path510"></path>
                                </g>
                                <g id="g512" transform="translate(858.470649, 1279.940101)" fill="#FFFFFF" fill-rule="nonzero">
                                    <path d="M2.6666666,0 C2.42933327,0 2.18933328,0.0453333322 1.95599995,0.14533333 C1.03599997,0.535999987 0.606666652,1.60133329 0.999999975,2.5226666 L8.24933313,19.5559995 C8.64133312,20.4773328 9.70399976,20.9066661 10.6253331,20.5133328 C11.5466664,20.1213328 11.9759997,19.0559995 11.5826664,18.1359995 L4.33333323,1.10266664 C4.0399999,0.41199999 3.37066658,0 2.6666666,0" id="path514"></path>
                                </g>
                                <g id="g516" transform="translate(1266.036372, 851.726512)" fill="#FFFFFF">
                                    <path d="M5.3333332,9.3333331 C10.9039997,13.889333 16.6999996,12.721333 16.6999996,12.721333 C16.6999996,12.721333 16.3119996,7.55199981 11.0133331,3.52266658 C5.27999987,-0.834666646 0.309333326,0.926666643 0.309333326,0.926666643 C0.309333326,0.926666643 0.322666659,5.2333332 5.3333332,9.3333331" id="path518"></path>
                                </g>
                                <g id="g520" transform="translate(1231.369706, 803.666647)" fill="#FFFFFF">
                                    <path d="M34.6666658,45.3333322 C36.8853324,44.9573322 41.6493323,47.1279988 46.8453322,46.2173322 C55.5399986,44.6919989 57.3839986,38.1773324 57.3839986,38.1773324 C57.3839986,38.1773324 49.9826654,35.9359991 47.9893321,27.938666 C45.7573322,18.9799995 53.1759987,14.973333 53.1759987,14.973333 C53.1759987,14.973333 43.6266656,0.210666661 35.7159991,0.863999978 C31.9999992,1.17199997 29.6439993,3.75733324 25.6253327,4.10933323 C21.4626661,4.47199989 16.6719996,2.34799994 13.9026663,2.57733327 C5.80533319,3.24533325 -1.09599997,20.1759995 1.90266662,33.2413325 C4.88666654,46.2333322 15.4479996,51.533332 23.6053327,50.1066654 C28.7759993,49.2013321 32.0586659,45.7746655 34.6666658,45.3333322" id="path522"></path>
                                </g>
                            </g>
                        </g>
                    </g>
                </g>
                <path d="M1178.7021,311 L1205.17785,269.071952 L1194.2558,252 L1157,311 L1178.7021,311 Z M1223.30152,297.403168 L1214.7161,311 L1232,311 L1223.30152,297.403168 Z M1231.67576,272.552544 L1210.2979,272.552544 L1198.20686,291.699903 L1208.89647,308.627325 L1219.61908,291.646103 L1231.67576,272.552544 Z" id="Fill-2" fill="#030047" transform="translate(1194.500000, 281.500000) rotate(4.000000) translate(-1194.500000, -281.500000) "></path>
            </g>
            <g id="g60" transform="translate(392.002710, 542.000000)" fill="#8FACFF" fill-rule="nonzero">
                <polygon id="path62" points="30.6666659 0 0.134666663 32.7519992 32.8866658 63.2853318 63.4186651 30.5319992"></polygon>
            </g>
            <g id="g92" transform="translate(156.002710, 1270.000000)" fill="#8FACFF" fill-rule="nonzero">
                <path d="M1.3333333,19.9999995 C1.06133331,20.8919995 1.01333331,21.8639995 1.24399997,22.8359994 C1.93599995,25.758666 4.86399988,27.566666 7.78666647,26.8733327 L71.6453315,11.753333 C74.5679981,11.0639997 76.3773314,8.1319998 75.6826648,5.21066654 C74.9919981,2.28799994 72.0626649,0.479999988 69.1399983,1.17199997 L5.28266653,16.2933329 C3.33199992,16.7533329 1.87866662,18.2119995 1.3333333,19.9999995" id="path94"></path>
            </g>
            <g id="g68" transform="translate(443.002710, 1094.999999) rotate(118.000000) translate(-443.002710, -1094.999999) translate(419.002710, 1067.000000)" fill="#8FACFF" fill-rule="nonzero">
                <polygon id="path70" points="43.9999989 0 1.13466664 24.6799994 47.2466655 55.205332"></polygon>
            </g>
            <g id="g52" transform="translate(-0.000000, 961.188863)" fill="#8FACFF" fill-rule="nonzero">
                <path d="M30.6666659,53.333332 C18.0293329,53.333332 7.75066647,43.0533323 7.75066647,30.4173326 C7.75066647,17.7826662 18.0293329,7.50266648 30.6666659,7.50266648 C43.3026656,7.50266648 53.5826653,17.7826662 53.5826653,30.4173326 C53.5826653,43.0533323 43.3026656,53.333332 30.6666659,53.333332 M30.6666659,0.675999983 C14.265333,0.675999983 0.923999977,14.0186663 0.923999977,30.4173326 C0.923999977,46.8173322 14.265333,60.1586652 30.6666659,60.1586652 C47.0653322,60.1586652 60.4079985,46.8173322 60.4079985,30.4173326 C60.4079985,14.0186663 47.0653322,0.675999983 30.6666659,0.675999983" id="path54"></path>
            </g>
        </g>
    </g>
</svg>